<?xml version="1.0" encoding="utf-8"?>
<!-- Generator: Adobe Illustrator 27.5.0, SVG Export Plug-In . SVG Version: 6.00 Build 0)  -->
<svg version="1.1" xmlns="http://www.w3.org/2000/svg" xmlns:xlink="http://www.w3.org/1999/xlink" x="0px" y="0px"
	 viewBox="0 0 500 500" style="enable-background:new 0 0 500 500;" xml:space="preserve">
<g id="BACKGROUND">
	<rect style="fill:#FFDEF2;" width="500" height="500"/>
</g>
<g id="OBJECTS">
	<g>
		<g>
			<rect x="41.979" y="41.907" style="fill:#B55757;" width="416.042" height="416.042"/>
			<rect x="59.124" y="59.051" style="fill:#4F2649;" width="381.752" height="381.752"/>
			<rect x="50.294" y="138.6" style="fill:#B55757;" width="399.412" height="16.953"/>
			<rect x="50.294" y="241.451" style="fill:#B55757;" width="399.412" height="16.953"/>
			<rect x="50.294" y="344.302" style="fill:#B55757;" width="399.412" height="16.953"/>
			<rect x="34.025" y="33.913" style="fill:#B55757;" width="431.95" height="13.198"/>
			<rect x="34.025" y="451.35" style="fill:#B55757;" width="431.95" height="13.198"/>
			<path style="fill:#4F2649;" d="M465.975,451.6H270.038c-0.138,0-0.25-0.112-0.25-0.25c0-0.138,0.112-0.25,0.25-0.25h195.938
				c0.138,0,0.25,0.112,0.25,0.25C466.225,451.488,466.113,451.6,465.975,451.6z"/>
			<path style="fill:#4F2649;" d="M236.962,47.361H41.026c-0.138,0-0.25-0.112-0.25-0.25c0-0.138,0.112-0.25,0.25-0.25h195.937
				c0.138,0,0.25,0.112,0.25,0.25C237.212,47.249,237.101,47.361,236.962,47.361z"/>
			<path style="fill:#4F2649;" d="M334.17,250.25H138.233c-0.138,0-0.25-0.112-0.25-0.25s0.112-0.25,0.25-0.25H334.17
				c0.138,0,0.25,0.112,0.25,0.25S334.307,250.25,334.17,250.25z"/>
			<path style="fill:#4F2649;" d="M432.817,147.327H236.88c-0.138,0-0.25-0.112-0.25-0.25s0.112-0.25,0.25-0.25h195.937
				c0.138,0,0.25,0.112,0.25,0.25S432.955,147.327,432.817,147.327z"/>
			<path style="fill:#4F2649;" d="M270.177,353.029H74.24c-0.138,0-0.25-0.112-0.25-0.25s0.112-0.25,0.25-0.25h195.937
				c0.138,0,0.25,0.112,0.25,0.25S270.315,353.029,270.177,353.029z"/>
			<path style="fill:#4F2649;" d="M446.759,267.901c-0.138,0-0.25-0.112-0.25-0.25V90.537c0-0.138,0.112-0.25,0.25-0.25
				c0.138,0,0.25,0.112,0.25,0.25v177.113C447.009,267.788,446.897,267.901,446.759,267.901z"/>
			<path style="fill:#4F2649;" d="M50.294,355.733c-0.138,0-0.25-0.112-0.25-0.25V178.37c0-0.138,0.112-0.25,0.25-0.25
				c0.138,0,0.25,0.112,0.25,0.25v177.113C50.544,355.62,50.432,355.733,50.294,355.733z"/>
			<path style="fill:#4F2649;" d="M452.729,411.169c-0.138,0-0.25-0.112-0.25-0.25V233.806c0-0.138,0.112-0.25,0.25-0.25
				s0.25,0.112,0.25,0.25v177.113C452.979,411.057,452.867,411.169,452.729,411.169z"/>
		</g>
		<g>
			<g>
				<path style="fill:#FFDEF2;" d="M100.613,101.424c-5.764-1.61-12.002-1.009-17.175,2c-5.293,3.078-10.409,8.947-9.701,20.104
					c1.416,22.316,20.238,13.164,20.851,16.081c0.612,2.917,1.026,6.333,3.344,5.878c2.317-0.456,2.769-2.112,2.769-2.112
					s-0.042,3.301,3.004,2.912c3.046-0.388,2.608-2.958,2.608-2.958s0.237,2.488,3.726,1.561c2.416-0.642,1.021-2.585,1.021-2.585
					s0.417,2.25,4.201,0.387c2.729-1.343-2.962-5.234-0.505-7.186c0,0,4.418-0.18,4.604-6.099c0.216-6.908,0.694-16.61-7.959-22.913
					C111.4,106.494,108.274,103.564,100.613,101.424z"/>
				<path style="fill:#4F2649;" d="M119.134,119.532c0,0-8.986-2.67-8.853,3.618s9.146,5.04,9.146,5.04
					S119.752,122.886,119.134,119.532z"/>
				<path style="fill:#4F2649;" d="M97.7,127.334c0,0-8.79,2.353-9.699-3.871c-0.909-6.223,8.338-4.685,8.338-4.685
					s4.12,0.268,4.977,4.384C102.173,127.279,97.7,127.334,97.7,127.334z"/>
				<path style="fill:#4F2649;" d="M108.562,129.626c-0.333-0.572-1.15-0.591-1.507-0.033c-0.73,1.143-1.665,2.866-1.622,4.141
					c0.069,2.081,2.034-0.338,3.377,0.402c1.343,0.74,2.697-0.216,1.233-2.238C109.403,131.012,108.912,130.228,108.562,129.626z"/>
				<path style="fill:#4F2649;" d="M95.192,143.008c0.048,0.026,0.104,0.037,0.162,0.027c0.136-0.022,0.227-0.152,0.205-0.288
					c-0.023-0.138-0.588-3.417-2.255-6.228c-0.071-0.118-0.225-0.158-0.343-0.088c-0.118,0.071-0.158,0.224-0.087,0.343
					c1.618,2.729,2.186,6.023,2.192,6.056C95.079,142.909,95.127,142.973,95.192,143.008z"/>
				<path style="fill:#4F2649;" d="M114.262,138.112c0.046,0.025,0.1,0.036,0.157,0.029c0.136-0.02,0.231-0.147,0.211-0.284
					l-0.587-4.024c-0.019-0.137-0.146-0.231-0.284-0.212c-0.136,0.02-0.23,0.147-0.211,0.283l0.587,4.025
					C114.147,138.009,114.196,138.075,114.262,138.112z"/>
				<path style="fill:#4F2649;" d="M111.318,143.455c0.055,0.03,0.122,0.04,0.187,0.022c0.133-0.037,0.211-0.174,0.174-0.308
					l-0.574-2.089c-0.037-0.132-0.174-0.211-0.307-0.175c-0.133,0.037-0.211,0.174-0.174,0.308l0.574,2.089
					C111.216,143.37,111.261,143.424,111.318,143.455z"/>
				<path style="fill:#4F2649;" d="M106.199,144.157c0.061,0.033,0.134,0.041,0.205,0.016c0.131-0.047,0.197-0.19,0.151-0.32
					l-0.752-2.097c-0.046-0.13-0.189-0.197-0.319-0.151c-0.131,0.047-0.197,0.19-0.151,0.32l0.753,2.097
					C106.106,144.082,106.148,144.129,106.199,144.157z"/>
				<path style="fill:#4F2649;" d="M100.738,144.737c0.05,0.027,0.108,0.038,0.167,0.026c0.136-0.026,0.225-0.157,0.199-0.292
					l-0.534-2.792c-0.028-0.136-0.16-0.225-0.292-0.198c-0.136,0.026-0.225,0.157-0.199,0.292l0.534,2.791
					C100.628,144.641,100.676,144.703,100.738,144.737z"/>
				<path style="fill:#4F2649;" d="M81.565,128.158c0.021,0.012,0.046,0.021,0.072,0.026c0.135,0.028,0.267-0.06,0.294-0.196
					c0.958-4.752-1.63-5.631-1.74-5.666c-0.132-0.042-0.272,0.031-0.314,0.163c-0.042,0.13,0.035,0.271,0.161,0.313
					c0.095,0.033,2.266,0.81,1.403,5.092C81.418,127.999,81.471,128.107,81.565,128.158z"/>
			</g>
			<g>
				
					<ellipse transform="matrix(0.9699 -0.2435 0.2435 0.9699 -63.1024 84.3533)" style="fill:#97C4BC;" cx="309.59" cy="297.375" rx="29.996" ry="29.996"/>
				<g>
					<path style="fill:#FF5C5E;" d="M309.596,333.28c-4.521,0-9.046-0.866-13.369-2.6l0.391-0.971
						c8.636,3.465,18.106,3.36,26.663-0.296c8.558-3.656,15.178-10.427,18.643-19.064c7.153-17.829-1.531-38.153-19.36-45.307
						l0.39-0.971c18.363,7.369,27.31,28.304,19.941,46.669c-3.568,8.896-10.388,15.869-19.204,19.635
						C319.159,332.311,314.379,333.28,309.596,333.28z"/>
					<rect x="308.719" y="332.747" style="fill:#FF5C5E;" width="2.27" height="9.204"/>
					<rect x="296.648" y="341.951" style="fill:#FF5C5E;" width="26.412" height="2.351"/>
				</g>
				<path style="fill:#FFDEF2;" d="M315.372,325.964c-0.091,0-0.18-0.048-0.228-0.134c-0.077-0.135-1.857-3.404-1.046-10.706
					c0.103-0.93-0.026-1.523-0.393-1.811c-0.82-0.642-2.955,0.142-5.218,0.973c-4.105,1.508-9.219,3.388-12.049-0.447
					c-2.886-3.909-3.003-8.966-3.089-12.659c-0.073-3.114-0.17-4.876-1.314-4.895c-0.269,0.006-0.496,0.088-0.674,0.283
					c-0.969,1.072-0.516,4.879-0.152,7.937c0.267,2.245,0.497,4.184,0.274,5.223c-0.18,0.842-0.55,0.978-0.848,0.953
					c-1.322-0.14-3.321-5.519-3.321-13.307c0-9.511-1.599-15.776-1.615-15.839c-0.036-0.139,0.048-0.282,0.188-0.319
					c0.138-0.033,0.283,0.048,0.319,0.188c0.016,0.062,1.631,6.387,1.631,15.97c0,8.192,2.12,12.709,2.853,12.786
					c0.075,0.002,0.199-0.158,0.282-0.543c0.204-0.954-0.033-2.944-0.283-5.051c-0.415-3.492-0.844-7.102,0.284-8.35
					c0.281-0.31,0.65-0.438,1.071-0.456c1.702,0.03,1.754,2.285,1.827,5.406c0.085,3.623,0.2,8.584,2.988,12.36
					c2.594,3.515,7.504,1.713,11.448,0.267c2.61-0.959,4.672-1.718,5.721-0.894c0.522,0.41,0.715,1.155,0.59,2.28
					c-0.79,7.113,0.965,10.362,0.982,10.394c0.07,0.126,0.025,0.285-0.1,0.356C315.459,325.953,315.415,325.964,315.372,325.964z"/>
				<path style="fill:#FFDEF2;" d="M333.372,311.594c-0.102,0-0.199-0.06-0.241-0.159c-2.529-5.991-9.848-4.894-14.69-4.168
					c-2.439,0.367-4.199,0.631-4.874-0.007c-0.273-0.256-0.405-0.543-0.393-0.852c0.03-0.723,0.836-1.37,1.691-2.054
					c0.749-0.6,1.598-1.28,1.554-1.821c-0.021-0.266-0.267-0.534-0.73-0.796c-3.033-1.719-4.07,0.044-5.51,2.483
					c-1.5,2.541-2.494,3.273-7.125,1.013c-4.609-2.248-3.098-8.308-3.083-8.369c1.589-3.638,2.965-5.364,4.348-5.472
					c1.365-0.119,2.379,1.442,3.254,2.812c0.43,0.676,0.836,1.313,1.212,1.615c0.563,0.453,0.718,0.373,0.726,0.369
					c0.592-0.366-0.539-5.568-1.146-8.363c-1.619-7.445-2.719-14.881-2.729-14.956c-0.021-0.143,0.078-0.276,0.221-0.296
					c0.141-0.021,0.276,0.077,0.296,0.221c0.011,0.074,1.108,7.493,2.723,14.921c1.427,6.561,1.622,8.478,0.91,8.918
					c-0.408,0.254-0.927-0.083-1.329-0.408c-0.443-0.356-0.872-1.028-1.326-1.74c-0.794-1.246-1.7-2.643-2.772-2.573
					c-1.137,0.089-2.447,1.811-3.895,5.121c-0.001,0.017-1.404,5.668,2.818,7.728c4.407,2.151,5.094,1.482,6.422-0.77
					c1.432-2.427,2.767-4.677,6.24-2.712c0.633,0.359,0.958,0.754,0.995,1.21c0.065,0.819-0.857,1.558-1.749,2.272
					c-0.691,0.553-1.475,1.181-1.494,1.666c-0.006,0.152,0.069,0.299,0.227,0.45c0.492,0.461,2.319,0.188,4.439-0.13
					c5-0.751,12.56-1.885,15.249,4.48c0.056,0.134-0.006,0.287-0.139,0.344C333.44,311.588,333.405,311.594,333.372,311.594z"/>
				<path style="fill:#FFDEF2;" d="M323.854,287.811c-0.069,0-0.138-0.003-0.208-0.011c-0.85-0.095-2.31-0.835-2.53-4.72
					c-0.331-5.884,4.654-9.021,4.704-9.051c0.124-0.076,0.283-0.038,0.36,0.086c0.076,0.123,0.038,0.284-0.086,0.36
					c-0.047,0.03-4.77,3.009-4.455,8.577c0.204,3.632,1.512,4.167,2.065,4.229c0.613,0.077,1.08-0.282,1.129-0.454
					c0.031-0.106,0.066-0.353,0.109-0.637c0.242-1.631,0.809-5.451,3.403-5.55c0.871-0.033,1.453-0.259,1.729-0.67
					c0.34-0.509,0.109-1.151,0.107-1.157c-0.05-0.136,0.019-0.286,0.154-0.336c0.141-0.051,0.287,0.021,0.336,0.154
					c0.013,0.037,0.324,0.903-0.164,1.63c-0.374,0.558-1.095,0.862-2.142,0.902c-2.161,0.083-2.683,3.601-2.906,5.104
					c-0.048,0.328-0.084,0.565-0.124,0.704C325.216,287.396,324.578,287.811,323.854,287.811z"/>
				<path style="fill:#FFDEF2;" d="M337.843,301.444c-0.118,0-0.225-0.08-0.254-0.199c-1.122-4.545-2.627-4.37-4.212-4.192
					c-1.438,0.161-3.054,0.344-4.281-2.753c-2.568-6.473,4.092-9.892,4.16-9.925c0.126-0.061,0.286-0.012,0.351,0.117
					c0.064,0.13,0.012,0.287-0.117,0.352c-0.259,0.13-6.297,3.241-3.908,9.265c1.081,2.725,2.313,2.584,3.735,2.425
					c1.748-0.199,3.549-0.401,4.781,4.588c0.034,0.14-0.051,0.282-0.192,0.317C337.884,301.442,337.863,301.444,337.843,301.444z"/>
			</g>
			<g>
				<rect x="245.79" y="133" style="fill:#6E89EA;" width="27.404" height="5.455"/>
				<path style="fill:#6E89EA;" d="M247.16,137.055c-4.956,0-8.938-2.281-10.391-5.954c-1.433-3.619-0.125-7.694,3.589-11.18
					c1.683-1.58,3.312-2.109,4.844-1.572c4.878,1.709,6.71,14.055,6.786,14.58l-0.99,0.143c-0.491-3.408-2.551-12.526-6.127-13.778
					c-1.149-0.404-2.439,0.053-3.828,1.358c-3.398,3.19-4.617,6.865-3.344,10.082c1.299,3.283,4.925,5.322,9.461,5.322V137.055z"/>
				<rect x="258.026" y="88.774" style="fill:#B55757;" width="2.93" height="10.201"/>
				<path style="fill:#FFB769;" d="M266.846,84.566c0,4.062-3.293,7.355-7.355,7.355c-4.062,0-7.355-3.293-7.355-7.355
					c0-4.062,3.293-16.168,7.355-16.168C263.553,68.398,266.846,80.504,266.846,84.566z"/>
				<path style="fill:#FF5C5E;" d="M263.868,86.465c0,2.417-1.959,4.377-4.377,4.377c-2.417,0-4.377-1.959-4.377-4.377
					s1.96-9.621,4.377-9.621C261.909,76.843,263.868,84.048,263.868,86.465z"/>
				<rect x="254.261" y="96.582" style="fill:#FFDEF2;" width="10.46" height="36.418"/>
				<path style="fill:#4F2649;" d="M262.295,129.903c-0.138,0-0.25-0.112-0.25-0.25V101.02c0-0.138,0.112-0.25,0.25-0.25
					c0.138,0,0.25,0.112,0.25,0.25v28.633C262.545,129.791,262.433,129.903,262.295,129.903z"/>
			</g>
			<g>
				<g>
					<rect x="361.108" y="373.476" style="fill:#FF5C5E;" width="21.823" height="67.328"/>
					<path style="fill:#4F2649;" d="M379.89,398.033h-15.163c-0.138,0-0.25-0.112-0.25-0.25V377.85c0-0.138,0.112-0.25,0.25-0.25
						h15.163c0.138,0,0.25,0.112,0.25,0.25v19.933C380.14,397.92,380.028,398.033,379.89,398.033z M364.977,397.533h14.663V378.1
						h-14.663V397.533z"/>
					<path style="fill:#4F2649;" d="M379.89,436.927h-15.163c-0.138,0-0.25-0.112-0.25-0.25v-19.933c0-0.138,0.112-0.25,0.25-0.25
						h15.163c0.138,0,0.25,0.112,0.25,0.25v19.933C380.14,436.815,380.028,436.927,379.89,436.927z M364.977,436.427h14.663v-19.433
						h-14.663V436.427z"/>
					<path style="fill:#4F2649;" d="M379.89,409.166h-15.163c-0.138,0-0.25-0.112-0.25-0.25v-5.205c0-0.138,0.112-0.25,0.25-0.25
						h15.163c0.138,0,0.25,0.112,0.25,0.25v5.205C380.14,409.054,380.028,409.166,379.89,409.166z M364.977,408.666h14.663v-4.705
						h-14.663V408.666z"/>
				</g>
				<g>
					<rect x="350.197" y="398.775" style="fill:#F98AB7;" width="10.911" height="42.029"/>
					<path style="fill:#4F2649;" d="M352.617,438.663c-0.138,0-0.25-0.112-0.25-0.25v-36.997c0-0.138,0.112-0.25,0.25-0.25
						s0.25,0.112,0.25,0.25v36.997C352.867,438.551,352.754,438.663,352.617,438.663z"/>
				</g>
				<g>
					<rect x="404.753" y="383.465" style="fill:#FFB769;" width="21.823" height="57.339"/>
					<path style="fill:#4F2649;" d="M423.246,413.495h-15.163c-0.138,0-0.25-0.112-0.25-0.25v-26.992c0-0.138,0.112-0.25,0.25-0.25
						h15.163c0.138,0,0.25,0.112,0.25,0.25v26.992C423.496,413.382,423.383,413.495,423.246,413.495z M408.333,412.995h14.663
						v-26.492h-14.663V412.995z"/>
					<path style="fill:#4F2649;" d="M423.293,417.69h-15.257c-0.138,0-0.25-0.112-0.25-0.25c0-0.138,0.112-0.25,0.25-0.25h15.257
						c0.138,0,0.25,0.112,0.25,0.25C423.543,417.578,423.43,417.69,423.293,417.69z"/>
					<path style="fill:#4F2649;" d="M423.293,422.267h-15.257c-0.138,0-0.25-0.112-0.25-0.25s0.112-0.25,0.25-0.25h15.257
						c0.138,0,0.25,0.112,0.25,0.25S423.43,422.267,423.293,422.267z"/>
					<path style="fill:#4F2649;" d="M423.293,426.843h-15.257c-0.138,0-0.25-0.112-0.25-0.25s0.112-0.25,0.25-0.25h15.257
						c0.138,0,0.25,0.112,0.25,0.25S423.43,426.843,423.293,426.843z"/>
					<path style="fill:#4F2649;" d="M423.293,431.42h-15.257c-0.138,0-0.25-0.112-0.25-0.25s0.112-0.25,0.25-0.25h15.257
						c0.138,0,0.25,0.112,0.25,0.25S423.43,431.42,423.293,431.42z"/>
				</g>
				<g>
					<rect x="382.93" y="383.465" style="fill:#6E89EA;" width="21.823" height="57.339"/>
					<path style="fill:#4F2649;" d="M401.423,421.728h-15.164c-0.138,0-0.25-0.112-0.25-0.25v-15.164c0-0.138,0.112-0.25,0.25-0.25
						h15.164c0.138,0,0.25,0.112,0.25,0.25v15.164C401.673,421.616,401.561,421.728,401.423,421.728z M386.509,421.228h14.664
						v-14.664h-14.664V421.228z"/>
					<path style="fill:#4F2649;" d="M401.359,388.902h-15.257c-0.138,0-0.25-0.112-0.25-0.25s0.112-0.25,0.25-0.25h15.257
						c0.138,0,0.25,0.112,0.25,0.25S401.497,388.902,401.359,388.902z"/>
					<path style="fill:#4F2649;" d="M401.359,393.479h-15.257c-0.138,0-0.25-0.112-0.25-0.25s0.112-0.25,0.25-0.25h15.257
						c0.138,0,0.25,0.112,0.25,0.25S401.497,393.479,401.359,393.479z"/>
					<path style="fill:#4F2649;" d="M401.359,398.056h-15.257c-0.138,0-0.25-0.112-0.25-0.25s0.112-0.25,0.25-0.25h15.257
						c0.138,0,0.25,0.112,0.25,0.25S401.497,398.056,401.359,398.056z"/>
					<path style="fill:#4F2649;" d="M401.359,402.633h-15.257c-0.138,0-0.25-0.112-0.25-0.25c0-0.138,0.112-0.25,0.25-0.25h15.257
						c0.138,0,0.25,0.112,0.25,0.25C401.609,402.521,401.497,402.633,401.359,402.633z"/>
					<path style="fill:#4F2649;" d="M401.359,429.234h-15.257c-0.138,0-0.25-0.112-0.25-0.25s0.112-0.25,0.25-0.25h15.257
						c0.138,0,0.25,0.112,0.25,0.25S401.497,429.234,401.359,429.234z"/>
					<path style="fill:#4F2649;" d="M401.359,433.81h-15.257c-0.138,0-0.25-0.112-0.25-0.25s0.112-0.25,0.25-0.25h15.257
						c0.138,0,0.25,0.112,0.25,0.25S401.497,433.81,401.359,433.81z"/>
				</g>
			</g>
			<g>
				<g>
					
						<rect x="291.832" y="375.253" transform="matrix(0.7235 -0.6904 0.6904 0.7235 -198.5811 322.082)" style="fill:#97C4BC;" width="21.822" height="67.328"/>
					<path style="fill:#4F2649;" d="M312.762,430.63c-0.002,0-0.004,0-0.006,0c-0.066-0.002-0.129-0.029-0.175-0.077l-18.649-19.514
						c-0.096-0.1-0.092-0.258,0.008-0.353l10.962-10.478c0.049-0.046,0.121-0.064,0.179-0.069c0.066,0.002,0.129,0.029,0.175,0.077
						l18.649,19.514c0.096,0.1,0.092,0.258-0.008,0.354l-10.962,10.478C312.888,430.606,312.827,430.63,312.762,430.63z
						 M294.466,410.874l18.304,19.152l10.6-10.132l-18.304-19.152L294.466,410.874z"/>
					<path style="fill:#4F2649;" d="M291.181,408.116c-0.065,0-0.132-0.025-0.181-0.077c-0.096-0.1-0.092-0.258,0.008-0.353
						l11.029-10.541c0.101-0.094,0.259-0.094,0.354,0.008c0.096,0.1,0.092,0.258-0.008,0.353l-11.029,10.541
						C291.305,408.092,291.244,408.116,291.181,408.116z"/>
					<path style="fill:#4F2649;" d="M288.019,404.807c-0.065,0-0.132-0.025-0.181-0.077c-0.096-0.1-0.092-0.258,0.008-0.353
						l11.029-10.541c0.101-0.093,0.259-0.093,0.354,0.008c0.096,0.1,0.092,0.258-0.008,0.353l-11.029,10.541
						C288.143,404.784,288.082,404.807,288.019,404.807z"/>
					<path style="fill:#4F2649;" d="M284.857,401.498c-0.065,0-0.132-0.025-0.181-0.077c-0.096-0.1-0.092-0.258,0.008-0.354
						l11.028-10.541c0.101-0.094,0.259-0.092,0.354,0.008c0.096,0.1,0.092,0.258-0.008,0.354l-11.028,10.541
						C284.981,401.475,284.92,401.498,284.857,401.498z"/>
					<path style="fill:#4F2649;" d="M281.694,398.19c-0.065,0-0.132-0.025-0.181-0.077c-0.096-0.1-0.092-0.258,0.008-0.354
						l11.029-10.541c0.101-0.094,0.258-0.093,0.354,0.008c0.096,0.1,0.092,0.258-0.008,0.354l-11.029,10.541
						C281.818,398.166,281.757,398.19,281.694,398.19z"/>
				</g>
				<g>
					
						<rect x="245.089" y="380.543" transform="matrix(-1.836970e-16 1 -1 -1.836970e-16 664.0704 159.4752)" style="fill:#FFB769;" width="14.417" height="62.459"/>
					<path style="fill:#4F2649;" d="M280.586,407.39h-56.969c-0.138,0-0.25-0.112-0.25-0.25c0-0.138,0.112-0.25,0.25-0.25h56.969
						c0.138,0,0.25,0.112,0.25,0.25C280.836,407.278,280.723,407.39,280.586,407.39z"/>
				</g>
				<g>
					
						<rect x="252.706" y="396.229" transform="matrix(-1.836970e-16 1 -1 -1.836970e-16 693.5097 166.2756)" style="fill:#F98AB7;" width="21.823" height="67.328"/>
					<path style="fill:#4F2649;" d="M239.405,438.663h-6.083c-0.138,0-0.25-0.112-0.25-0.25v-16.935c0-0.138,0.112-0.25,0.25-0.25
						h6.083c0.138,0,0.25,0.112,0.25,0.25v16.935C239.655,438.551,239.544,438.663,239.405,438.663z M233.572,438.163h5.583v-16.435
						h-5.583V438.163z"/>
					<path style="fill:#4F2649;" d="M250,438.663h-6.083c-0.138,0-0.25-0.112-0.25-0.25v-16.935c0-0.138,0.112-0.25,0.25-0.25H250
						c0.138,0,0.25,0.112,0.25,0.25v16.935C250.25,438.551,250.138,438.663,250,438.663z M244.167,438.163h5.583v-16.435h-5.583
						V438.163z"/>
					<path style="fill:#4F2649;" d="M260.417,438.663h-6.083c-0.138,0-0.25-0.112-0.25-0.25v-16.935c0-0.138,0.112-0.25,0.25-0.25
						h6.083c0.138,0,0.25,0.112,0.25,0.25v16.935C260.667,438.551,260.554,438.663,260.417,438.663z M254.584,438.163h5.583v-16.435
						h-5.583V438.163z"/>
					<path style="fill:#4F2649;" d="M272.51,438.663c-0.138,0-0.25-0.112-0.25-0.25v-16.935c0-0.138,0.112-0.25,0.25-0.25
						c0.138,0,0.25,0.112,0.25,0.25v16.935C272.76,438.551,272.648,438.663,272.51,438.663z"/>
					<path style="fill:#4F2649;" d="M279.446,438.663c-0.138,0-0.25-0.112-0.25-0.25v-16.935c0-0.138,0.112-0.25,0.25-0.25
						s0.25,0.112,0.25,0.25v16.935C279.696,438.551,279.584,438.663,279.446,438.663z"/>
					<path style="fill:#4F2649;" d="M286.956,438.663c-0.138,0-0.25-0.112-0.25-0.25v-16.935c0-0.138,0.112-0.25,0.25-0.25
						s0.25,0.112,0.25,0.25v16.935C287.206,438.551,287.093,438.663,286.956,438.663z"/>
				</g>
			</g>
			<g>
				<g>
					<rect x="188.107" y="373.476" style="fill:#A475DB;" width="16.558" height="67.328"/>
					<path style="fill:#4F2649;" d="M201.605,395.261H190.79c-0.138,0-0.25-0.112-0.25-0.25v-17.823c0-0.138,0.112-0.25,0.25-0.25
						h10.815c0.138,0,0.25,0.112,0.25,0.25v17.823C201.855,395.149,201.743,395.261,201.605,395.261z M191.04,394.761h10.315
						v-17.323H191.04V394.761z"/>
					<path style="fill:#4F2649;" d="M201.605,416.302H190.79c-0.138,0-0.25-0.112-0.25-0.25v-17.824c0-0.138,0.112-0.25,0.25-0.25
						h10.815c0.138,0,0.25,0.112,0.25,0.25v17.824C201.855,416.19,201.743,416.302,201.605,416.302z M191.04,415.802h10.315v-17.324
						H191.04V415.802z"/>
					<path style="fill:#4F2649;" d="M201.605,437.495H190.79c-0.138,0-0.25-0.112-0.25-0.25V419.42c0-0.138,0.112-0.25,0.25-0.25
						h10.815c0.138,0,0.25,0.112,0.25,0.25v17.824C201.855,437.382,201.743,437.495,201.605,437.495z M191.04,436.995h10.315V419.67
						H191.04V436.995z"/>
				</g>
				<g>
					<rect x="171.55" y="383.465" style="fill:#97C4BC;" width="16.558" height="57.339"/>
					<path style="fill:#4F2649;" d="M174,437.495c-0.138,0-0.25-0.112-0.25-0.25V386.1c0-0.138,0.112-0.25,0.25-0.25
						c0.138,0,0.25,0.112,0.25,0.25v51.145C174.25,437.382,174.138,437.495,174,437.495z"/>
				</g>
				<g>
					<rect x="149.727" y="373.476" style="fill:#FF5C5E;" width="21.823" height="67.328"/>
					<path style="fill:#4F2649;" d="M168.134,384.94h-15.107c-0.138,0-0.25-0.112-0.25-0.25c0-0.138,0.112-0.25,0.25-0.25h15.107
						c0.138,0,0.25,0.112,0.25,0.25C168.384,384.828,168.272,384.94,168.134,384.94z"/>
					<path style="fill:#4F2649;" d="M168.134,399.665h-15.107c-0.138,0-0.25-0.112-0.25-0.25c0-0.138,0.112-0.25,0.25-0.25h15.107
						c0.138,0,0.25,0.112,0.25,0.25C168.384,399.553,168.272,399.665,168.134,399.665z"/>
					<path style="fill:#4F2649;" d="M168.134,414.392h-15.107c-0.138,0-0.25-0.112-0.25-0.25s0.112-0.25,0.25-0.25h15.107
						c0.138,0,0.25,0.112,0.25,0.25S168.272,414.392,168.134,414.392z"/>
					<path style="fill:#4F2649;" d="M168.134,429.117h-15.107c-0.138,0-0.25-0.112-0.25-0.25s0.112-0.25,0.25-0.25h15.107
						c0.138,0,0.25,0.112,0.25,0.25S168.272,429.117,168.134,429.117z"/>
				</g>
			</g>
			<g>
				<g>
					<path style="fill:#F98AB7;" d="M142.052,392.765H83.749c-2.513,0-4.551,2.037-4.551,4.551v5.525
						c0,2.513,2.037,4.551,4.551,4.551h58.303V392.765z"/>
					<path style="fill:#FFDEF2;" d="M142.052,395.011H87.167c-1.688,0-3.057,1.368-3.057,3.056v4.021
						c0,1.688,1.368,3.056,3.057,3.056h54.885V395.011z"/>
					<path style="fill:#4F2649;" d="M131.554,398.478H91.921c-0.138,0-0.25-0.112-0.25-0.25c0-0.138,0.112-0.25,0.25-0.25h39.632
						c0.138,0,0.25,0.112,0.25,0.25C131.804,398.366,131.692,398.478,131.554,398.478z"/>
				</g>
				<g>
					<path style="fill:#6E89EA;" d="M133.34,407.391H75.038c-2.513,0-4.551,2.037-4.551,4.551v5.525
						c0,2.513,2.037,4.551,4.551,4.551h58.303V407.391z"/>
					<path style="fill:#FFDEF2;" d="M133.34,409.637H78.455c-1.688,0-3.056,1.368-3.056,3.057v4.021
						c0,1.688,1.368,3.056,3.056,3.056h54.885V409.637z"/>
					<path style="fill:#4F2649;" d="M125.473,412.385h-17.905c-0.138,0-0.25-0.112-0.25-0.25s0.112-0.25,0.25-0.25h17.905
						c0.138,0,0.25,0.112,0.25,0.25S125.611,412.385,125.473,412.385z"/>
					<path style="fill:#4F2649;" d="M107.567,417.254H84.11c-0.138,0-0.25-0.112-0.25-0.25c0-0.138,0.112-0.25,0.25-0.25h23.457
						c0.138,0,0.25,0.112,0.25,0.25C107.817,417.142,107.706,417.254,107.567,417.254z"/>
				</g>
				<g>
					<path style="fill:#FFB769;" d="M138.994,422.017H80.691c-2.513,0-4.551,2.037-4.551,4.551v9.685
						c0,2.513,2.037,4.551,4.551,4.551h58.303V422.017z"/>
					<path style="fill:#FFDEF2;" d="M138.994,424.902H84.109c-1.688,0-3.056,1.368-3.056,3.056v6.904
						c0,1.688,1.368,3.057,3.056,3.057h54.885V424.902z"/>
					<path style="fill:#4F2649;" d="M131.554,436.029H88.335c-0.138,0-0.25-0.112-0.25-0.25s0.112-0.25,0.25-0.25h43.219
						c0.138,0,0.25,0.112,0.25,0.25S131.692,436.029,131.554,436.029z"/>
					<path style="fill:#4F2649;" d="M134.243,429.863h-29.874c-0.138,0-0.25-0.112-0.25-0.25s0.112-0.25,0.25-0.25h29.874
						c0.138,0,0.25,0.112,0.25,0.25S134.382,429.863,134.243,429.863z"/>
				</g>
			</g>
			<g>
				<g>
					<path style="fill:#A475DB;" d="M427.268,285.798h-58.303c-2.513,0-4.551,2.037-4.551,4.551v5.525
						c0,2.513,2.037,4.551,4.551,4.551h58.303V285.798z"/>
					<path style="fill:#FFDEF2;" d="M427.268,288.044h-54.885c-1.688,0-3.057,1.368-3.057,3.057v4.021
						c0,1.688,1.369,3.056,3.057,3.056h54.885V288.044z"/>
					<path style="fill:#4F2649;" d="M408.387,290.495h-25.258c-0.138,0-0.25-0.112-0.25-0.25s0.112-0.25,0.25-0.25h25.258
						c0.138,0,0.25,0.112,0.25,0.25S408.525,290.495,408.387,290.495z"/>
					<path style="fill:#4F2649;" d="M418.219,294.085h-13.422c-0.138,0-0.25-0.112-0.25-0.25s0.112-0.25,0.25-0.25h13.422
						c0.138,0,0.25,0.112,0.25,0.25S418.357,294.085,418.219,294.085z"/>
				</g>
				<g>
					<path style="fill:#97C4BC;" d="M425.268,315.05h-58.303c-2.513,0-4.551,2.037-4.551,4.551v5.525
						c0,2.513,2.037,4.551,4.551,4.551h58.303V315.05z"/>
					<path style="fill:#FFDEF2;" d="M425.268,317.296h-54.885c-1.688,0-3.057,1.368-3.057,3.056v4.021
						c0,1.688,1.369,3.057,3.057,3.057h54.885V317.296z"/>
					<path style="fill:#4F2649;" d="M413.538,320.774h-35.429c-0.138,0-0.25-0.112-0.25-0.25c0-0.138,0.112-0.25,0.25-0.25h35.429
						c0.138,0,0.25,0.112,0.25,0.25C413.788,320.661,413.675,320.774,413.538,320.774z"/>
				</g>
				<g>
					<path style="fill:#FF5C5E;" d="M414.556,329.676h-58.303c-2.513,0-4.551,2.037-4.551,4.551v5.525
						c0,2.513,2.037,4.551,4.551,4.551h58.303V329.676z"/>
					<path style="fill:#FFDEF2;" d="M414.556,331.922h-54.885c-1.688,0-3.056,1.368-3.056,3.056v4.021
						c0,1.688,1.368,3.056,3.056,3.056h54.885V331.922z"/>
					<path style="fill:#4F2649;" d="M392,334.821h-19.041c-0.138,0-0.25-0.112-0.25-0.25c0-0.138,0.112-0.25,0.25-0.25H392
						c0.138,0,0.25,0.112,0.25,0.25C392.25,334.708,392.137,334.821,392,334.821z"/>
					<path style="fill:#4F2649;" d="M404.173,339.346h-22.631c-0.138,0-0.25-0.112-0.25-0.25s0.112-0.25,0.25-0.25h22.631
						c0.138,0,0.25,0.112,0.25,0.25S404.311,339.346,404.173,339.346z"/>
				</g>
				<g>
					<path style="fill:#FFB769;" d="M417.468,300.424h-58.303c-2.513,0-4.551,2.037-4.551,4.551v5.525
						c0,2.513,2.037,4.551,4.551,4.551h58.303V300.424z"/>
					<path style="fill:#FFDEF2;" d="M417.468,302.67h-54.885c-1.688,0-3.057,1.368-3.057,3.056v4.021
						c0,1.688,1.368,3.056,3.057,3.056h54.885V302.67z"/>
					<path style="fill:#4F2649;" d="M381.543,306.414h-15.14c-0.138,0-0.25-0.112-0.25-0.25s0.112-0.25,0.25-0.25h15.14
						c0.138,0,0.25,0.112,0.25,0.25S381.68,306.414,381.543,306.414z"/>
					<path style="fill:#4F2649;" d="M406.202,310.16h-24.659c-0.138,0-0.25-0.112-0.25-0.25s0.112-0.25,0.25-0.25h24.659
						c0.138,0,0.25,0.112,0.25,0.25S406.339,310.16,406.202,310.16z"/>
				</g>
			</g>
			<g>
				<g>
					
						<rect x="87.343" y="280.178" transform="matrix(0.7071 0.7071 -0.7071 0.7071 250.2897 23.4307)" style="fill:#6E89EA;" width="19.037" height="67.328"/>
					<path style="fill:#4F2649;" d="M110.862,308.663c-0.064,0-0.128-0.024-0.177-0.073l-8.573-8.572
						c-0.047-0.047-0.073-0.11-0.073-0.177s0.026-0.13,0.073-0.177l11.269-11.27c0.094-0.094,0.26-0.094,0.353,0l8.573,8.573
						c0.098,0.098,0.098,0.256,0,0.353l-11.269,11.269C110.99,308.639,110.926,308.663,110.862,308.663z M102.643,299.841
						l8.219,8.219l10.916-10.915l-8.219-8.22L102.643,299.841z"/>
					<path style="fill:#4F2649;" d="M96.657,322.868c-0.064,0-0.128-0.024-0.177-0.073l-8.573-8.572
						c-0.098-0.098-0.098-0.256,0-0.353l11.269-11.27c0.094-0.094,0.26-0.094,0.354,0l8.573,8.573c0.098,0.098,0.098,0.256,0,0.354
						l-11.269,11.268C96.785,322.844,96.721,322.868,96.657,322.868z M88.438,314.046l8.219,8.219l10.915-10.915l-8.219-8.22
						L88.438,314.046z"/>
					<path style="fill:#4F2649;" d="M82.226,337.299c-0.064,0-0.128-0.024-0.177-0.073l-8.573-8.572
						c-0.047-0.047-0.073-0.11-0.073-0.177s0.026-0.13,0.073-0.177l11.269-11.269c0.098-0.098,0.256-0.098,0.354,0l8.573,8.572
						c0.047,0.047,0.073,0.11,0.073,0.177c0,0.066-0.026,0.13-0.073,0.177l-11.269,11.269
						C82.354,337.275,82.29,337.299,82.226,337.299z M74.007,328.477l8.219,8.219l10.915-10.915l-8.219-8.219L74.007,328.477z"/>
				</g>
				<g>
					<rect x="188.291" y="277.049" style="fill:#FF5C5E;" width="21.823" height="67.328"/>
					<path style="fill:#4F2649;" d="M206.863,328.505H191.7c-0.138,0-0.25-0.112-0.25-0.25v-19.933c0-0.138,0.112-0.25,0.25-0.25
						h15.163c0.138,0,0.25,0.112,0.25,0.25v19.933C207.113,328.393,207.001,328.505,206.863,328.505z M191.95,328.005h14.663
						v-19.433H191.95V328.005z"/>
					<path style="fill:#4F2649;" d="M206.863,339.64H191.7c-0.138,0-0.25-0.112-0.25-0.25v-5.205c0-0.138,0.112-0.25,0.25-0.25
						h15.163c0.138,0,0.25,0.112,0.25,0.25v5.205C207.113,339.528,207.001,339.64,206.863,339.64z M191.95,339.14h14.663v-4.705
						H191.95V339.14z"/>
					<path style="fill:#4F2649;" d="M206.863,287.202H191.7c-0.138,0-0.25-0.112-0.25-0.25v-5.205c0-0.138,0.112-0.25,0.25-0.25
						h15.163c0.138,0,0.25,0.112,0.25,0.25v5.205C207.113,287.089,207.001,287.202,206.863,287.202z M191.95,286.702h14.663v-4.705
						H191.95V286.702z"/>
				</g>
				<g>
					
						<rect x="245.556" y="275.413" transform="matrix(0.9707 -0.2405 0.2405 0.9707 -66.8031 70.7489)" style="fill:#FFB769;" width="21.823" height="67.328"/>
					<path style="fill:#4F2649;" d="M248.595,307.182c-0.112,0-0.214-0.076-0.243-0.19l-6.001-24.223
						c-0.016-0.064-0.006-0.133,0.029-0.189c0.034-0.057,0.089-0.098,0.154-0.113l13.831-3.427c0.065-0.02,0.132-0.006,0.189,0.028
						c0.057,0.034,0.098,0.09,0.113,0.153l6.001,24.223c0.033,0.135-0.048,0.27-0.182,0.303l-13.832,3.427
						C248.635,307.18,248.615,307.182,248.595,307.182z M242.897,282.892l5.881,23.737l13.346-3.307l-5.881-23.737L242.897,282.892z
						"/>
					<path style="fill:#4F2649;" d="M256.214,337.931c-0.112,0-0.215-0.076-0.242-0.19l-6.001-24.223
						c-0.033-0.135,0.048-0.27,0.183-0.303l13.831-3.427c0.137-0.043,0.271,0.049,0.303,0.182l6.002,24.223
						c0.017,0.064,0.006,0.133-0.028,0.189c-0.034,0.057-0.09,0.098-0.153,0.113l-13.832,3.427
						C256.254,337.929,256.233,337.931,256.214,337.931z M250.515,313.641l5.881,23.737l13.347-3.307l-5.882-23.737L250.515,313.641
						z"/>
				</g>
				<g>
					<rect x="223.617" y="279.111" style="fill:#F98AB7;" width="14.163" height="65.265"/>
					<path style="fill:#4F2649;" d="M226.653,337.599c-0.138,0-0.25-0.112-0.25-0.25v-54.137c0-0.138,0.112-0.25,0.25-0.25
						c0.138,0,0.25,0.112,0.25,0.25v54.137C226.903,337.487,226.792,337.599,226.653,337.599z"/>
				</g>
				<g>
					<rect x="209.453" y="268.436" style="fill:#6E89EA;" width="14.163" height="75.94"/>
					<path style="fill:#4F2649;" d="M220.25,277.298h-7.429c-0.138,0-0.25-0.112-0.25-0.25c0-0.138,0.112-0.25,0.25-0.25h7.429
						c0.138,0,0.25,0.112,0.25,0.25C220.5,277.186,220.388,277.298,220.25,277.298z"/>
					<path style="fill:#4F2649;" d="M220.25,293.357h-7.429c-0.138,0-0.25-0.112-0.25-0.25c0-0.138,0.112-0.25,0.25-0.25h7.429
						c0.138,0,0.25,0.112,0.25,0.25C220.5,293.245,220.388,293.357,220.25,293.357z"/>
					<path style="fill:#4F2649;" d="M220.25,308.657h-7.429c-0.138,0-0.25-0.112-0.25-0.25c0-0.138,0.112-0.25,0.25-0.25h7.429
						c0.138,0,0.25,0.112,0.25,0.25C220.5,308.544,220.388,308.657,220.25,308.657z"/>
					<path style="fill:#4F2649;" d="M220.25,324.107h-7.429c-0.138,0-0.25-0.112-0.25-0.25c0-0.138,0.112-0.25,0.25-0.25h7.429
						c0.138,0,0.25,0.112,0.25,0.25C220.5,323.995,220.388,324.107,220.25,324.107z"/>
				</g>
				<g>
					<rect x="174.127" y="268.436" style="fill:#FFB769;" width="14.163" height="75.94"/>
					<path style="fill:#4F2649;" d="M185.334,339.64c-0.138,0-0.25-0.112-0.25-0.25v-63.614c0-0.138,0.112-0.25,0.25-0.25
						s0.25,0.112,0.25,0.25v63.614C185.584,339.528,185.472,339.64,185.334,339.64z"/>
				</g>
				<g>
					<rect x="156.551" y="285.792" style="fill:#A475DB;" width="17.576" height="58.585"/>
					<path style="fill:#4F2649;" d="M160.581,339.64c-0.138,0-0.25-0.112-0.25-0.25v-48.773c0-0.138,0.112-0.25,0.25-0.25
						s0.25,0.112,0.25,0.25v48.773C160.831,339.528,160.719,339.64,160.581,339.64z"/>
					<path style="fill:#4F2649;" d="M169.921,314.092h-6.279c-0.138,0-0.25-0.112-0.25-0.25s0.112-0.25,0.25-0.25h6.279
						c0.138,0,0.25,0.112,0.25,0.25S170.059,314.092,169.921,314.092z"/>
					<path style="fill:#4F2649;" d="M169.921,294.995h-6.279c-0.138,0-0.25-0.112-0.25-0.25c0-0.138,0.112-0.25,0.25-0.25h6.279
						c0.138,0,0.25,0.112,0.25,0.25C170.171,294.882,170.059,294.995,169.921,294.995z"/>
					<path style="fill:#4F2649;" d="M169.921,335.345h-6.279c-0.138,0-0.25-0.112-0.25-0.25s0.112-0.25,0.25-0.25h6.279
						c0.138,0,0.25,0.112,0.25,0.25S170.059,335.345,169.921,335.345z"/>
				</g>
				<g>
					<rect x="146.17" y="278.621" style="fill:#F98AB7;" width="10.382" height="65.61"/>
					<path style="fill:#4F2649;" d="M148.995,342.434c-0.138,0-0.25-0.112-0.25-0.25v-58.972c0-0.138,0.112-0.25,0.25-0.25
						c0.138,0,0.25,0.112,0.25,0.25v58.972C149.245,342.322,149.133,342.434,148.995,342.434z"/>
				</g>
				<g>
					
						<rect x="122.358" y="276.903" transform="matrix(0.9267 0.3758 -0.3758 0.9267 126.1068 -25.3946)" style="fill:#97C4BC;" width="11.586" height="67.328"/>
					<path style="fill:#4F2649;" d="M119.732,339.64c-0.033,0-0.065-0.006-0.097-0.02c-0.127-0.054-0.187-0.2-0.133-0.328
						l23.265-55.041c0.054-0.126,0.202-0.187,0.328-0.133c0.127,0.054,0.187,0.2,0.133,0.328l-23.265,55.041
						C119.921,339.582,119.829,339.64,119.732,339.64z"/>
				</g>
			</g>
			<g>
				<g>
					<rect x="407.36" y="174.123" style="fill:#F98AB7;" width="21.823" height="67.328"/>
					<path style="fill:#4F2649;" d="M425.462,190.22h-14.618c-0.138,0-0.25-0.112-0.25-0.25v-11.858c0-0.138,0.112-0.25,0.25-0.25
						h14.618c0.138,0,0.25,0.112,0.25,0.25v11.858C425.712,190.108,425.599,190.22,425.462,190.22z M411.093,189.72h14.118v-11.358
						h-14.118V189.72z"/>
					<path style="fill:#4F2649;" d="M425.462,207.113h-14.618c-0.138,0-0.25-0.112-0.25-0.25v-11.858c0-0.138,0.112-0.25,0.25-0.25
						h14.618c0.138,0,0.25,0.112,0.25,0.25v11.858C425.712,207.001,425.599,207.113,425.462,207.113z M411.093,206.613h14.118
						v-11.358h-14.118V206.613z"/>
					<path style="fill:#4F2649;" d="M425.462,224.006h-14.618c-0.138,0-0.25-0.112-0.25-0.25v-11.857c0-0.138,0.112-0.25,0.25-0.25
						h14.618c0.138,0,0.25,0.112,0.25,0.25v11.857C425.712,223.894,425.599,224.006,425.462,224.006z M411.093,223.506h14.118
						v-11.357h-14.118V223.506z"/>
					<path style="fill:#4F2649;" d="M425.462,230.991h-14.618c-0.138,0-0.25-0.112-0.25-0.25c0-0.138,0.112-0.25,0.25-0.25h14.618
						c0.138,0,0.25,0.112,0.25,0.25C425.712,230.879,425.599,230.991,425.462,230.991z"/>
					<path style="fill:#4F2649;" d="M425.462,236.346h-14.618c-0.138,0-0.25-0.112-0.25-0.25c0-0.138,0.112-0.25,0.25-0.25h14.618
						c0.138,0,0.25,0.112,0.25,0.25C425.712,236.234,425.599,236.346,425.462,236.346z"/>
				</g>
				<g>
					<rect x="393.197" y="165.511" style="fill:#97C4BC;" width="14.163" height="75.94"/>
					<path style="fill:#4F2649;" d="M404.797,235.749c-0.138,0-0.25-0.112-0.25-0.25v-65.617c0-0.138,0.112-0.25,0.25-0.25
						s0.25,0.112,0.25,0.25v65.617C405.047,235.637,404.935,235.749,404.797,235.749z"/>
				</g>
				<g>
					<rect x="375.621" y="182.866" style="fill:#A475DB;" width="17.576" height="58.585"/>
					<path style="fill:#4F2649;" d="M390.468,238.324h-12.357c-0.138,0-0.25-0.112-0.25-0.25v-51.971c0-0.138,0.112-0.25,0.25-0.25
						h12.357c0.138,0,0.25,0.112,0.25,0.25v51.971C390.718,238.212,390.606,238.324,390.468,238.324z M378.361,237.824h11.857
						v-51.471h-11.857V237.824z"/>
				</g>
				<g>
					
						<rect x="353.303" y="174.123" transform="matrix(0.9267 0.3758 -0.3758 0.9267 104.4111 -119.7201)" style="fill:#FFB769;" width="11.586" height="67.328"/>
					<path style="fill:#4F2649;" d="M350.054,238.324c-0.031,0-0.063-0.006-0.093-0.018c-0.128-0.051-0.19-0.197-0.14-0.325
						l23.164-58.017c0.052-0.128,0.199-0.187,0.325-0.14c0.128,0.051,0.19,0.197,0.14,0.325l-23.164,58.017
						C350.248,238.264,350.154,238.324,350.054,238.324z"/>
				</g>
			</g>
			<g>
				<g>
					
						<rect x="301.091" y="174.093" transform="matrix(6.123234e-17 -1 1 6.123234e-17 104.7023 512.6179)" style="fill:#F98AB7;" width="15.138" height="59.73"/>
					<path style="fill:#4F2649;" d="M296.226,209.315h-14.439c-0.138,0-0.25-0.112-0.25-0.25V198.96c0-0.138,0.112-0.25,0.25-0.25
						h14.439c0.138,0,0.25,0.112,0.25,0.25v10.105C296.476,209.203,296.364,209.315,296.226,209.315z M282.037,208.815h13.939
						v-9.605h-13.939V208.815z"/>
					<path style="fill:#4F2649;" d="M315.88,209.315h-14.44c-0.138,0-0.25-0.112-0.25-0.25V198.96c0-0.138,0.112-0.25,0.25-0.25
						h14.44c0.138,0,0.25,0.112,0.25,0.25v10.105C316.13,209.203,316.018,209.315,315.88,209.315z M301.69,208.815h13.94v-9.605
						h-13.94V208.815z"/>
					<path style="fill:#4F2649;" d="M334.779,209.315h-14.44c-0.138,0-0.25-0.112-0.25-0.25V198.96c0-0.138,0.112-0.25,0.25-0.25
						h14.44c0.138,0,0.25,0.112,0.25,0.25v10.105C335.029,209.203,334.917,209.315,334.779,209.315z M320.589,208.815h13.94v-9.605
						h-13.94V208.815z"/>
				</g>
				<g>
					
						<rect x="290.752" y="192.74" transform="matrix(6.123234e-17 -1 1 6.123234e-17 79.225 520.2985)" style="fill:#6E89EA;" width="18.019" height="55.594"/>
					<path style="fill:#4F2649;" d="M289.007,226.395H275.3c-0.138,0-0.25-0.112-0.25-0.25v-11.953c0-0.138,0.112-0.25,0.25-0.25
						h13.706c0.138,0,0.25,0.112,0.25,0.25v11.953C289.257,226.283,289.144,226.395,289.007,226.395z M275.55,225.895h13.206
						v-11.453H275.55V225.895z"/>
					<path style="fill:#4F2649;" d="M321.99,226.395h-7.807c-0.138,0-0.25-0.112-0.25-0.25v-11.953c0-0.138,0.112-0.25,0.25-0.25
						h7.807c0.138,0,0.25,0.112,0.25,0.25v11.953C322.24,226.283,322.128,226.395,321.99,226.395z M314.433,225.895h7.307v-11.453
						h-7.307V225.895z"/>
					<path style="fill:#4F2649;" d="M293.168,226.395c-0.138,0-0.25-0.112-0.25-0.25v-11.953c0-0.138,0.112-0.25,0.25-0.25
						c0.138,0,0.25,0.112,0.25,0.25v11.953C293.418,226.283,293.305,226.395,293.168,226.395z"/>
					<path style="fill:#4F2649;" d="M298.129,226.395c-0.138,0-0.25-0.112-0.25-0.25v-11.953c0-0.138,0.112-0.25,0.25-0.25
						s0.25,0.112,0.25,0.25v11.953C298.379,226.283,298.267,226.395,298.129,226.395z"/>
					<path style="fill:#4F2649;" d="M303.327,226.395c-0.138,0-0.25-0.112-0.25-0.25v-11.953c0-0.138,0.112-0.25,0.25-0.25
						s0.25,0.112,0.25,0.25v11.953C303.577,226.283,303.464,226.395,303.327,226.395z"/>
					<path style="fill:#4F2649;" d="M308.967,226.395c-0.138,0-0.25-0.112-0.25-0.25v-11.953c0-0.138,0.112-0.25,0.25-0.25
						c0.138,0,0.25,0.112,0.25,0.25v11.953C309.217,226.283,309.105,226.395,308.967,226.395z"/>
				</g>
				<g>
					
						<rect x="298.63" y="209.712" transform="matrix(6.123234e-17 -1 1 6.123234e-17 69.0833 540.0807)" style="fill:#97C4BC;" width="11.905" height="51.574"/>
					<path style="fill:#4F2649;" d="M327.559,232.308h-45.772c-0.138,0-0.25-0.112-0.25-0.25c0-0.138,0.112-0.25,0.25-0.25h45.772
						c0.138,0,0.25,0.112,0.25,0.25C327.809,232.196,327.697,232.308,327.559,232.308z"/>
				</g>
			</g>
			<g>
				<g>
					<rect x="247.112" y="165.511" style="fill:#FF5C5E;" width="14.163" height="75.94"/>
					<path style="fill:#4F2649;" d="M250,238.324c-0.138,0-0.25-0.112-0.25-0.25v-68.771c0-0.138,0.112-0.25,0.25-0.25
						c0.138,0,0.25,0.112,0.25,0.25v68.771C250.25,238.212,250.138,238.324,250,238.324z"/>
				</g>
				<g>
					<rect x="225.29" y="184.113" style="fill:#FFB769;" width="21.823" height="57.339"/>
					<path style="fill:#4F2649;" d="M244.018,238.324h-15.623c-0.138,0-0.25-0.112-0.25-0.25v-50.205c0-0.138,0.112-0.25,0.25-0.25
						h15.623c0.138,0,0.25,0.112,0.25,0.25v50.205C244.268,238.212,244.156,238.324,244.018,238.324z M228.646,237.824h15.123
						v-49.705h-15.123V237.824z"/>
				</g>
				<g>
					<rect x="208.732" y="174.123" style="fill:#97C4BC;" width="16.558" height="67.328"/>
					<path style="fill:#4F2649;" d="M222.518,181.459h-11.376c-0.138,0-0.25-0.112-0.25-0.25s0.112-0.25,0.25-0.25h11.376
						c0.138,0,0.25,0.112,0.25,0.25S222.656,181.459,222.518,181.459z"/>
					<path style="fill:#4F2649;" d="M222.518,191.457h-11.376c-0.138,0-0.25-0.112-0.25-0.25c0-0.138,0.112-0.25,0.25-0.25h11.376
						c0.138,0,0.25,0.112,0.25,0.25C222.768,191.345,222.656,191.457,222.518,191.457z"/>
					<path style="fill:#4F2649;" d="M222.518,201.454h-11.376c-0.138,0-0.25-0.112-0.25-0.25s0.112-0.25,0.25-0.25h11.376
						c0.138,0,0.25,0.112,0.25,0.25S222.656,201.454,222.518,201.454z"/>
					<path style="fill:#4F2649;" d="M222.518,211.452h-11.376c-0.138,0-0.25-0.112-0.25-0.25c0-0.138,0.112-0.25,0.25-0.25h11.376
						c0.138,0,0.25,0.112,0.25,0.25C222.768,211.34,222.656,211.452,222.518,211.452z"/>
					<path style="fill:#4F2649;" d="M222.518,221.449h-11.376c-0.138,0-0.25-0.112-0.25-0.25c0-0.138,0.112-0.25,0.25-0.25h11.376
						c0.138,0,0.25,0.112,0.25,0.25C222.768,221.337,222.656,221.449,222.518,221.449z"/>
					<path style="fill:#4F2649;" d="M222.518,231.575h-11.376c-0.138,0-0.25-0.112-0.25-0.25s0.112-0.25,0.25-0.25h11.376
						c0.138,0,0.25,0.112,0.25,0.25S222.656,231.575,222.518,231.575z"/>
				</g>
			</g>
			<g>
				<g>
					<path style="fill:#FFB769;" d="M191.481,193.413h-58.303c-2.513,0-4.551,2.037-4.551,4.551v5.525
						c0,2.513,2.037,4.551,4.551,4.551h58.303V193.413z"/>
					<path style="fill:#FFDEF2;" d="M191.481,195.658h-54.885c-1.688,0-3.057,1.368-3.057,3.057v4.021
						c0,1.688,1.368,3.057,3.057,3.057h54.885V195.658z"/>
					<path style="fill:#4F2649;" d="M186.839,198.236h-21.081c-0.138,0-0.25-0.112-0.25-0.25c0-0.138,0.112-0.25,0.25-0.25h21.081
						c0.138,0,0.25,0.112,0.25,0.25C187.089,198.124,186.977,198.236,186.839,198.236z"/>
					<path style="fill:#4F2649;" d="M175.226,202.476h-32.625c-0.138,0-0.25-0.112-0.25-0.25s0.112-0.25,0.25-0.25h32.625
						c0.138,0,0.25,0.112,0.25,0.25S175.364,202.476,175.226,202.476z"/>
				</g>
				<g>
					<path style="fill:#F98AB7;" d="M199.281,208.038h-58.303c-2.513,0-4.551,2.037-4.551,4.551v5.525
						c0,2.513,2.037,4.551,4.551,4.551h58.303V208.038z"/>
					<path style="fill:#FFDEF2;" d="M199.281,210.285h-54.885c-1.688,0-3.056,1.368-3.056,3.056v4.021
						c0,1.688,1.368,3.057,3.056,3.057h54.885V210.285z"/>
					<path style="fill:#4F2649;" d="M193.474,213.221h-47.002c-0.138,0-0.25-0.112-0.25-0.25c0-0.138,0.112-0.25,0.25-0.25h47.002
						c0.138,0,0.25,0.112,0.25,0.25C193.724,213.109,193.612,213.221,193.474,213.221z"/>
				</g>
				<g>
					<path style="fill:#6E89EA;" d="M197.183,222.665h-58.303c-2.513,0-4.551,2.037-4.551,4.551v9.685
						c0,2.513,2.037,4.551,4.551,4.551h58.303V222.665z"/>
					<path style="fill:#FFDEF2;" d="M197.183,225.549h-54.885c-1.688,0-3.056,1.368-3.056,3.057v6.904
						c0,1.688,1.368,3.057,3.056,3.057h54.885V225.549z"/>
					<path style="fill:#4F2649;" d="M169.973,228.834H147.21c-0.138,0-0.25-0.112-0.25-0.25s0.112-0.25,0.25-0.25h22.764
						c0.138,0,0.25,0.112,0.25,0.25S170.111,228.834,169.973,228.834z"/>
					<path style="fill:#4F2649;" d="M188.291,233.442h-26.704c-0.138,0-0.25-0.112-0.25-0.25s0.112-0.25,0.25-0.25h26.704
						c0.138,0,0.25,0.112,0.25,0.25S188.429,233.442,188.291,233.442z"/>
				</g>
			</g>
			<g>
				<g>
					<rect x="75.532" y="174.123" style="fill:#F98AB7;" width="21.823" height="67.328"/>
					<path style="fill:#4F2649;" d="M94.254,238.324H78.632c-0.138,0-0.25-0.112-0.25-0.25V178.37c0-0.138,0.112-0.25,0.25-0.25
						h15.622c0.138,0,0.25,0.112,0.25,0.25v59.704C94.504,238.212,94.393,238.324,94.254,238.324z M78.882,237.824h15.122V178.62
						H78.882V237.824z"/>
				</g>
				<g>
					<rect x="97.354" y="184.113" style="fill:#FF5C5E;" width="21.823" height="57.339"/>
					<path style="fill:#4F2649;" d="M115.575,204.344h-14.619c-0.138,0-0.25-0.112-0.25-0.25v-11.857c0-0.138,0.112-0.25,0.25-0.25
						h14.619c0.138,0,0.25,0.112,0.25,0.25v11.857C115.825,204.232,115.713,204.344,115.575,204.344z M101.206,203.844h14.119
						v-11.357h-14.119V203.844z"/>
					<path style="fill:#4F2649;" d="M115.575,221.237h-14.619c-0.138,0-0.25-0.112-0.25-0.25V209.13c0-0.138,0.112-0.25,0.25-0.25
						h14.619c0.138,0,0.25,0.112,0.25,0.25v11.857C115.825,221.125,115.713,221.237,115.575,221.237z M101.206,220.737h14.119
						V209.38h-14.119V220.737z"/>
					<path style="fill:#4F2649;" d="M115.575,228.222h-14.619c-0.138,0-0.25-0.112-0.25-0.25s0.112-0.25,0.25-0.25h14.619
						c0.138,0,0.25,0.112,0.25,0.25S115.713,228.222,115.575,228.222z"/>
					<path style="fill:#4F2649;" d="M115.575,233.577h-14.619c-0.138,0-0.25-0.112-0.25-0.25s0.112-0.25,0.25-0.25h14.619
						c0.138,0,0.25,0.112,0.25,0.25S115.713,233.577,115.575,233.577z"/>
				</g>
			</g>
			<g>
				<g>
					<rect x="362.819" y="62.66" style="fill:#FFB769;" width="14.163" height="75.94"/>
					<path style="fill:#4F2649;" d="M373.164,133.25c-0.138,0-0.25-0.112-0.25-0.25V68.398c0-0.138,0.112-0.25,0.25-0.25
						s0.25,0.112,0.25,0.25V133C373.414,133.138,373.301,133.25,373.164,133.25z"/>
				</g>
				<g>
					<rect x="352.437" y="72.844" style="fill:#F98AB7;" width="10.382" height="65.61"/>
					<path style="fill:#4F2649;" d="M355.644,134.753c-0.138,0-0.25-0.112-0.25-0.25V76.844c0-0.138,0.112-0.25,0.25-0.25
						s0.25,0.112,0.25,0.25v57.659C355.894,134.641,355.782,134.753,355.644,134.753z"/>
				</g>
				<g>
					
						<rect x="328.625" y="71.127" transform="matrix(0.9267 0.3758 -0.3758 0.9267 63.8953 -117.9958)" style="fill:#97C4BC;" width="11.586" height="67.328"/>
					<path style="fill:#4F2649;" d="M320.171,133.25c-0.031,0-0.063-0.006-0.095-0.019c-0.128-0.052-0.188-0.198-0.137-0.326
						l23.36-57.112c0.053-0.128,0.196-0.189,0.326-0.137c0.128,0.052,0.189,0.198,0.137,0.326l-23.36,57.112
						C320.363,133.191,320.27,133.25,320.171,133.25z"/>
				</g>
				<g>
					<rect x="398.804" y="81.262" style="fill:#6E89EA;" width="21.823" height="57.339"/>
					<path style="fill:#4F2649;" d="M417.041,134.753h-14.65c-0.138,0-0.25-0.112-0.25-0.25v-21.71c0-0.138,0.112-0.25,0.25-0.25
						h14.65c0.138,0,0.25,0.112,0.25,0.25v21.71C417.291,134.641,417.178,134.753,417.041,134.753z M402.64,134.253h14.15v-21.21
						h-14.15V134.253z"/>
					<path style="fill:#4F2649;" d="M417.041,108.016h-14.65c-0.138,0-0.25-0.112-0.25-0.25V86.057c0-0.138,0.112-0.25,0.25-0.25
						h14.65c0.138,0,0.25,0.112,0.25,0.25v21.709C417.291,107.905,417.178,108.016,417.041,108.016z M402.64,107.516h14.15V86.307
						h-14.15V107.516z"/>
				</g>
				<g>
					<rect x="376.982" y="71.272" style="fill:#FF5C5E;" width="21.822" height="67.328"/>
					<path style="fill:#4F2649;" d="M394.973,79.121H379.42c-0.138,0-0.25-0.112-0.25-0.25s0.112-0.25,0.25-0.25h15.554
						c0.138,0,0.25,0.112,0.25,0.25S395.111,79.121,394.973,79.121z"/>
					<path style="fill:#4F2649;" d="M394.973,90.036H379.42c-0.138,0-0.25-0.112-0.25-0.25c0-0.138,0.112-0.25,0.25-0.25h15.554
						c0.138,0,0.25,0.112,0.25,0.25C395.223,89.924,395.111,90.036,394.973,90.036z"/>
					<path style="fill:#4F2649;" d="M394.973,100.88H379.42c-0.138,0-0.25-0.112-0.25-0.25c0-0.138,0.112-0.25,0.25-0.25h15.554
						c0.138,0,0.25,0.112,0.25,0.25C395.223,100.768,395.111,100.88,394.973,100.88z"/>
					<path style="fill:#4F2649;" d="M394.973,112.411H379.42c-0.138,0-0.25-0.112-0.25-0.25c0-0.138,0.112-0.25,0.25-0.25h15.554
						c0.138,0,0.25,0.112,0.25,0.25C395.223,112.3,395.111,112.411,394.973,112.411z"/>
					<path style="fill:#4F2649;" d="M394.973,124.964H379.42c-0.138,0-0.25-0.112-0.25-0.25s0.112-0.25,0.25-0.25h15.554
						c0.138,0,0.25,0.112,0.25,0.25S395.111,124.964,394.973,124.964z"/>
				</g>
				<g>
					
						<rect x="301.917" y="71.388" transform="matrix(0.8457 0.5337 -0.5337 0.8457 104.1274 -150)" style="fill:#A475DB;" width="19.037" height="67.328"/>
					<path style="fill:#4F2649;" d="M322.395,98.134c-0.047,0-0.093-0.013-0.134-0.039l-9.205-5.81
						c-0.116-0.074-0.151-0.228-0.078-0.345l9.612-15.231c0.035-0.056,0.091-0.096,0.156-0.11c0.063-0.016,0.131-0.003,0.188,0.032
						l9.206,5.81c0.056,0.035,0.096,0.092,0.11,0.156c0.015,0.064,0.003,0.132-0.033,0.188l-9.612,15.231
						c-0.035,0.056-0.091,0.096-0.156,0.11C322.432,98.132,322.414,98.134,322.395,98.134z M313.535,91.996l8.782,5.543
						l9.346-14.808l-8.783-5.543L313.535,91.996z"/>
					<path style="fill:#4F2649;" d="M310.84,116.443c-0.046,0-0.092-0.012-0.134-0.039l-9.206-5.81
						c-0.056-0.035-0.096-0.092-0.11-0.156c-0.015-0.064-0.003-0.132,0.033-0.188l9.612-15.23c0.073-0.117,0.228-0.152,0.345-0.078
						l9.206,5.81c0.056,0.035,0.096,0.092,0.11,0.156c0.015,0.064,0.003,0.132-0.033,0.188l-9.612,15.23
						C311.004,116.402,310.923,116.443,310.84,116.443z M301.979,110.305l8.783,5.543l9.346-14.808l-8.783-5.543L301.979,110.305z"
						/>
					<path style="fill:#4F2649;" d="M299.531,134.365c-0.047,0-0.093-0.013-0.134-0.039l-9.206-5.81
						c-0.056-0.035-0.096-0.092-0.11-0.156c-0.015-0.064-0.003-0.132,0.033-0.188l9.612-15.231c0.035-0.056,0.091-0.096,0.156-0.11
						c0.063-0.016,0.131-0.003,0.188,0.032l9.205,5.81c0.116,0.074,0.151,0.228,0.077,0.345l-9.61,15.231
						c-0.036,0.056-0.092,0.096-0.157,0.11C299.568,134.363,299.549,134.365,299.531,134.365z M290.67,128.227l8.783,5.543
						l9.345-14.808l-8.782-5.543L290.67,128.227z"/>
				</g>
			</g>
			<g>
				<g>
					
						<rect x="189.284" y="62.66" transform="matrix(-1 -1.224647e-16 1.224647e-16 -1 392.7319 201.2603)" style="fill:#FFB769;" width="14.163" height="75.94"/>
					<path style="fill:#4F2649;" d="M199.481,134.85c-0.138,0-0.25-0.112-0.25-0.25V67.452c0-0.138,0.112-0.25,0.25-0.25
						s0.25,0.112,0.25,0.25V134.6C199.731,134.738,199.619,134.85,199.481,134.85z"/>
				</g>
				<g>
					
						<rect x="203.448" y="80.016" transform="matrix(-1 -1.224647e-16 1.224647e-16 -1 424.4712 218.6157)" style="fill:#97C4BC;" width="17.576" height="58.585"/>
					<path style="fill:#4F2649;" d="M217.653,134.85h-11.69c-0.138,0-0.25-0.112-0.25-0.25V83.842c0-0.138,0.112-0.25,0.25-0.25
						h11.69c0.138,0,0.25,0.112,0.25,0.25V134.6C217.903,134.738,217.792,134.85,217.653,134.85z M206.213,134.35h11.19V84.092
						h-11.19V134.35z"/>
				</g>
				<g>
					
						<rect x="137.864" y="69.636" transform="matrix(-0.9707 -0.2405 0.2405 -0.9707 268.341 239.3478)" style="fill:#FF5C5E;" width="21.823" height="67.328"/>
					<path style="fill:#4F2649;" d="M149.064,135.782c-0.02,0-0.04-0.003-0.06-0.007l-15.593-3.863
						c-0.064-0.016-0.12-0.057-0.154-0.114c-0.035-0.057-0.045-0.124-0.029-0.189l2.188-8.831c0.033-0.134,0.169-0.216,0.303-0.183
						l15.593,3.863c0.065,0.016,0.12,0.057,0.154,0.114c0.035,0.057,0.045,0.124,0.029,0.189l-2.188,8.831
						C149.278,135.706,149.176,135.782,149.064,135.782z M133.774,131.486l15.107,3.743l2.068-8.345l-15.108-3.743L133.774,131.486z
						"/>
					<path style="fill:#4F2649;" d="M155.478,110.656c-0.02,0-0.04-0.003-0.06-0.007l-15.593-3.863
						c-0.065-0.016-0.12-0.057-0.154-0.114c-0.035-0.057-0.045-0.125-0.029-0.189l2.188-8.83c0.033-0.133,0.17-0.214,0.303-0.183
						l15.593,3.863c0.064,0.016,0.12,0.057,0.154,0.114c0.035,0.057,0.045,0.125,0.029,0.189l-2.188,8.83
						C155.692,110.579,155.59,110.656,155.478,110.656z M140.187,106.36l15.108,3.743l2.068-8.345l-15.108-3.743L140.187,106.36z"/>
					<path style="fill:#4F2649;" d="M161.211,86.756c-0.02,0-0.04-0.003-0.06-0.007l-15.593-3.863
						c-0.064-0.016-0.12-0.057-0.154-0.114c-0.035-0.057-0.045-0.124-0.029-0.189l2.188-8.83c0.033-0.133,0.168-0.214,0.303-0.183
						l15.593,3.863c0.064,0.016,0.12,0.057,0.154,0.114c0.035,0.057,0.045,0.124,0.029,0.189l-2.188,8.83
						C161.425,86.68,161.323,86.756,161.211,86.756z M145.921,82.46l15.108,3.743l2.068-8.345l-15.108-3.743L145.921,82.46z"/>
				</g>
				<g>
					
						<rect x="167.462" y="71.272" transform="matrix(-1 -1.224647e-16 1.224647e-16 -1 356.7461 209.8727)" style="fill:#F98AB7;" width="21.823" height="67.328"/>
					<path style="fill:#4F2649;" d="M187.031,134.85h-16.064c-0.138,0-0.25-0.112-0.25-0.25v-9.098c0-0.138,0.112-0.25,0.25-0.25
						h16.064c0.138,0,0.25,0.112,0.25,0.25v9.098C187.281,134.738,187.169,134.85,187.031,134.85z M171.216,134.35h15.564v-8.598
						h-15.564V134.35z"/>
					<path style="fill:#4F2649;" d="M187.031,121.752h-16.064c-0.138,0-0.25-0.112-0.25-0.25v-9.098c0-0.138,0.112-0.25,0.25-0.25
						h16.064c0.138,0,0.25,0.112,0.25,0.25v9.098C187.281,121.64,187.169,121.752,187.031,121.752z M171.216,121.252h15.564v-8.598
						h-15.564V121.252z"/>
					<path style="fill:#4F2649;" d="M187.031,84.958h-16.064c-0.138,0-0.25-0.112-0.25-0.25v-9.098c0-0.138,0.112-0.25,0.25-0.25
						h16.064c0.138,0,0.25,0.112,0.25,0.25v9.098C187.281,84.846,187.169,84.958,187.031,84.958z M171.216,84.458h15.564v-8.598
						h-15.564V84.458z"/>
					<path style="fill:#4F2649;" d="M187.031,92.999h-16.064c-0.138,0-0.25-0.112-0.25-0.25c0-0.138,0.112-0.25,0.25-0.25h16.064
						c0.138,0,0.25,0.112,0.25,0.25C187.281,92.887,187.169,92.999,187.031,92.999z"/>
					<path style="fill:#4F2649;" d="M187.031,99.225h-16.064c-0.138,0-0.25-0.112-0.25-0.25s0.112-0.25,0.25-0.25h16.064
						c0.138,0,0.25,0.112,0.25,0.25S187.169,99.225,187.031,99.225z"/>
					<path style="fill:#4F2649;" d="M187.031,105.94h-16.064c-0.138,0-0.25-0.112-0.25-0.25c0-0.138,0.112-0.25,0.25-0.25h16.064
						c0.138,0,0.25,0.112,0.25,0.25C187.281,105.828,187.169,105.94,187.031,105.94z"/>
				</g>
			</g>
		</g>
	</g>
</g>
</svg>
